<svg width="24" height="24" viewBox="0 0 24 24" fill="none" xmlns="http://www.w3.org/2000/svg">
<path d="M18.0444 22.5348C16.8195 23.7221 15.4822 23.5346 14.1948 22.9722C12.8325 22.3973 11.5827 22.3723 10.1454 22.9722C8.34558 23.7471 7.3957 23.5222 6.32083 22.5348C0.221604 16.2481 1.12149 6.67428 8.04562 6.32432C9.7329 6.41181 10.9078 7.2492 11.8951 7.32419C13.3699 7.02423 14.7823 6.16184 16.3571 6.27433C18.2443 6.42431 19.6691 7.17421 20.6065 8.52404C16.707 10.8612 17.6319 15.9981 21.2065 17.4354C20.494 19.3102 19.5692 21.1724 18.0319 22.5473L18.0444 22.5348ZM11.7701 6.24933C11.5827 3.46218 13.8449 1.16247 16.4446 0.9375C16.807 4.16209 13.5199 6.56179 11.7701 6.24933Z" fill="black"/>
</svg>
